<?xml version="1.0" encoding="iso-8859-1"?>
<!-- Uploaded to: SVG Repo, www.svgrepo.com, Generator: SVG Repo Mixer Tools -->
<svg version="1.1" id="Layer_1" xmlns="http://www.w3.org/2000/svg" xmlns:xlink="http://www.w3.org/1999/xlink" 
	 viewBox="0 0 297.003 297.003" xml:space="preserve">
<g id="XMLID_34_">
	<g>
		<polygon style="fill:#7F8C8D;" points="53.28,210.241 87.45,244.421 66.93,264.941 32.75,230.761 		"/>
		
			<rect x="250.388" y="18.283" transform="matrix(-0.7071 0.7071 -0.7071 -0.7071 475.397 -131.3301)" style="fill:#7F8C8D;" width="29.02" height="29.02"/>
		<polygon style="fill:#C0392B;" points="32.8,244.371 53.32,264.901 46.45,271.761 25.93,251.241 		"/>
		<polygon style="fill:#C0392B;" points="135.2,128.321 169.37,162.501 94.23,237.631 60.06,203.461 		"/>
		<polygon style="fill:#D35400;" points="230.77,32.751 264.94,66.931 176.15,155.711 141.98,121.541 		"/>
		<path d="M295.6,29.401c1.87,1.87,1.87,4.91,0,6.79l-23.92,23.91l3.44,3.43c1.87,1.88,1.87,4.91,0,6.79l-204.8,204.79
			c-0.93,0.94-2.16,1.41-3.39,1.41s-2.46-0.47-3.39-1.41l-3.44-3.43l-10.26,10.26c-0.93,0.94-2.16,1.41-3.39,1.41
			s-2.46-0.47-3.39-1.41l-10.95-10.95l-23.92,23.92c-0.93,0.93-2.16,1.4-3.39,1.4s-2.46-0.47-3.39-1.4c-1.88-1.88-1.88-4.92,0-6.79
			l23.91-23.91l-9.57-9.57c-0.9-0.9-1.4-2.12-1.4-3.4c0-1.27,0.5-2.49,1.4-3.39l10.26-10.26l-3.43-3.44
			c-0.9-0.89-1.41-2.11-1.41-3.39c0-1.27,0.51-2.49,1.41-3.39l187.75-187.75l-4.61-4.61c-5.01-5.01-13.16-5.01-18.18,0l-55.78,55.79
			c-0.94,0.93-2.16,1.4-3.39,1.4c-1.23,0-2.46-0.47-3.39-1.4c-1.88-1.88-1.88-4.91,0-6.79l55.78-55.78c8.75-8.75,23-8.75,31.75,0
			l4.6,4.61l10.27-10.26c1.87-1.88,4.91-1.88,6.78,0l3.43,3.43l23.92-23.92c0.9-0.9,2.12-1.4,3.39-1.4c1.27,0,2.49,0.5,3.39,1.4
			L295.6,29.401z M264.9,53.311l20.52-20.52l-20.52-20.52l-20.52,20.52L264.9,53.311z M264.94,66.931l-34.17-34.18l-88.79,88.79
			l34.17,34.17L264.94,66.931z M169.37,162.501l-34.17-34.18l-75.14,75.14l34.17,34.17L169.37,162.501z M87.45,244.421l-34.17-34.18
			l-20.53,20.52l34.18,34.18L87.45,244.421z M53.32,264.901l-20.52-20.53l-6.87,6.87l20.52,20.52L53.32,264.901z"/>
	</g>
</g>
</svg>